<?xml version="1.0" encoding="utf-8"?>
<!-- Generator: Adobe Illustrator 21.0.0, SVG Export Plug-In . SVG Version: 6.00 Build 0)  -->
<svg version="1.1" xmlns="http://www.w3.org/2000/svg"  x="0px" y="0px"
	 viewBox="0 0 410.3 87.8" style="enable-background:new 0 0 410.3 87.8;" xml:space="preserve">
<style type="text/css">
	.st0{fill-rule:evenodd;clip-rule:evenodd;fill:#FFFFFF;}
	.st1{fill:#FFFFFF;}
</style>
<g id="watermark">
</g>
<g id="Layer_1">
	<g>
		<path class="st0" d="M234.4,78.2c-1.8,5.1-6.7,8.7-12.3,8.7c-5.6,0-10.4-3.5-12.3-8.5h0L181.6,1h14.5l0,0c2.2,0,4.1,1.4,4.8,3.4
			l0,0.1l19.2,58.6c0.3,0.8,1.1,1.4,2,1.4c0.9,0,1.7-0.6,2-1.4l0,0l19.2-58.6l0-0.1c0.7-2,2.6-3.4,4.8-3.4v0h14.5L234.4,78.2
			L234.4,78.2L234.4,78.2z"/>
		<path class="st1" d="M370.9,52.4h-34.3V35.5H382c1.2,0,2.3-0.2,3.3-0.6c1-0.4,2-1.1,2.9-2h0c0.9-0.9,1.5-1.8,2-2.8
			c0.4-1,0.6-2.1,0.6-3.3c0-1.2-0.2-2.3-0.6-3.3c-0.4-1-1.1-2-2-2.9l0,0c-0.9-0.9-1.9-1.6-2.9-2v0c-1-0.4-2.1-0.6-3.2-0.6h-45.5V1
			H382c3.5,0,6.7,0.6,9.8,1.9c3,1.3,5.8,3.2,8.3,5.7l0,0c2.5,2.5,4.4,5.3,5.7,8.3c1.3,3,1.9,6.3,1.9,9.8c0,3.1-0.5,6.1-1.6,8.8
			c-1,2.8-2.6,5.4-4.7,7.8c-2,2.4-4.3,4.3-6.9,5.8c-1.6,0.9-3.2,1.6-4.9,2.1l20.6,35.6h-19.5L370.9,52.4L370.9,52.4z"/>
		<path class="st1" d="M183.7,43.9c0,6-1.1,11.6-3.3,16.8c-2.2,5.2-5.4,9.9-9.7,14.2l0,0c-4.3,4.3-9.1,7.5-14.2,9.6
			c-5.2,2.2-10.8,3.2-16.8,3.2c-6,0-11.6-1.1-16.8-3.2c-5.2-2.1-9.9-5.4-14.2-9.6l0,0c-4.3-4.3-7.6-9.1-9.7-14.2
			c-2.2-5.2-3.3-10.8-3.3-16.8c0-6,1.1-11.5,3.3-16.7c2.2-5.2,5.4-9.9,9.7-14.2c4.3-4.3,9.1-7.6,14.2-9.7c5.2-2.2,10.8-3.3,16.8-3.3
			c6,0,11.6,1.1,16.8,3.3c5.2,2.2,9.9,5.4,14.2,9.7c4.3,4.3,7.6,9.1,9.7,14.2C182.6,32.4,183.7,38,183.7,43.9L183.7,43.9z
			 M166.8,43.9c0-3.7-0.7-7.2-2-10.3c-1.3-3.2-3.3-6.1-6-8.8c-2.7-2.7-5.6-4.7-8.8-6c-3.2-1.3-6.6-2-10.3-2c-3.7,0-7.2,0.7-10.3,2
			c-3.2,1.3-6.1,3.3-8.8,6c-2.7,2.7-4.7,5.6-6,8.8c-1.3,3.2-2,6.6-2,10.3c0,3.7,0.7,7.2,2,10.3c1.3,3.2,3.3,6.1,6,8.8
			c2.7,2.7,5.6,4.7,8.8,6c3.2,1.3,6.6,2,10.3,2c3.7,0,7.2-0.7,10.3-2c3.2-1.3,6.1-3.3,8.8-6c2.7-2.7,4.7-5.6,6-8.8
			C166.1,51.1,166.8,47.7,166.8,43.9L166.8,43.9z"/>
		<path class="st1" d="M16.9,38.6v46.9v1.4c-5.6,0-11.3,0-16.9,0V4.7l0,0V4.6c0-1.6,1.1-3,2.6-3.5L2.5,1h1.1h0.1H13h0h0h4h0
			c2.2,0,4.1,1.2,4.8,2.9l0,0L41,54.5c0.3,0.7,1.1,1.2,2,1.2c0.9,0,1.7-0.5,2-1.2h0L64.2,4l0,0C64.9,2.2,66.8,1,69,1h0h4h0h9.4h0
			h1.1l-0.1,0.1C84.9,1.6,86,3,86,4.6v0.1v82.1c-5.6,0-11.3,0-16.9,0v-1.4V38.6V35L55.4,67.5h0C53.5,71.9,48.7,75,43,75
			c-5.6,0-10.4-3.1-12.3-7.3h0L16.9,35V38.6L16.9,38.6z"/>
	</g>
	<g>
		<path class="st0" d="M248.1,1L248.1,1c-2.2,0-4.1,1.4-4.8,3.4l0,0.1l-19.2,58.6l0,0c-0.3,0.8-1.1,1.4-2,1.4c-0.9,0-1.7-0.6-2-1.4
			L200.9,4.4l0-0.1c-0.7-2-2.6-3.4-4.8-3.4l0,0h-14.5l28.2,77.4h0c1.9,5,6.7,8.5,12.3,8.5c5.7,0,10.5-3.6,12.3-8.7h0L262.6,1H248.1z
			 M232.5,77.5c-1.6,4.4-5.8,7.3-10.4,7.3c-4.6,0-8.8-2.9-10.4-7.2L184.5,3h11.6c1.3,0,2.5,0.8,2.9,2.1l19.2,58.7
			c0.6,1.6,2.2,2.7,3.9,2.7c1.7,0,3.3-1.1,3.9-2.8l19.2-58.7c0.4-1.2,1.6-2.1,2.9-2.1h11.6L232.5,77.5z"/>
		<path class="st1" d="M390.7,86.8h19.5l-20.6-35.6c1.7-0.5,3.4-1.3,4.9-2.1c2.5-1.5,4.9-3.4,6.9-5.8c2.1-2.4,3.6-5,4.7-7.8
			c1-2.8,1.6-5.7,1.6-8.8c0-3.5-0.6-6.7-1.9-9.8c-1.3-3-3.2-5.8-5.7-8.3l0,0c-2.5-2.5-5.3-4.4-8.3-5.7c-3-1.3-6.3-1.9-9.8-1.9h-45.5
			v16.9H382c1.2,0,2.3,0.2,3.2,0.6v0c1,0.4,2,1.1,2.9,2l0,0c0.9,0.9,1.6,1.9,2,2.9c0.4,1,0.6,2.1,0.6,3.3c0,1.2-0.2,2.3-0.6,3.3
			c-0.4,1-1.1,2-2,2.8h0c-0.9,0.9-1.8,1.6-2.9,2c-1,0.4-2.1,0.6-3.3,0.6h-45.5v16.9h34.3L390.7,86.8z M338.6,37.5H382
			c1.5,0,2.9-0.3,4.1-0.8c1.2-0.5,2.3-1.3,3.4-2.3c0,0,0.1-0.1,0.1-0.1c1.1-1.1,1.9-2.2,2.4-3.5c0.5-1.2,0.8-2.6,0.8-4.1
			c0-1.5-0.3-2.8-0.8-4.1c-0.5-1.2-1.3-2.3-2.3-3.4c0-0.1-0.1-0.1-0.1-0.1c-1-1-2.2-1.8-3.3-2.3c-0.1,0-0.1-0.1-0.2-0.1
			c-1.2-0.5-2.6-0.8-4-0.8h-43.4V3H382c3.2,0,6.2,0.6,9,1.8c2.8,1.2,5.3,2.9,7.7,5.3c2.3,2.3,4.1,4.9,5.3,7.7c1.2,2.8,1.8,5.8,1.8,9
			c0,2.8-0.5,5.6-1.4,8.1c-1,2.5-2.4,5-4.3,7.2c-1.9,2.2-4,4-6.4,5.4c-1.4,0.8-2.9,1.5-4.5,2c-0.6,0.2-1.1,0.6-1.3,1.2
			c-0.2,0.6-0.2,1.2,0.1,1.7l18.9,32.5h-14.9l-19.3-33.4c-0.4-0.6-1-1-1.7-1h-32.3V37.5z"/>
		<g>
			<path class="st1" d="M160.2,23.4c-2.9-2.9-6-5-9.4-6.4c-6.8-2.8-15.4-2.8-22.2,0c-3.4,1.4-6.6,3.6-9.4,6.4c-2.9,2.8-5,6-6.4,9.4
				c-1.4,3.4-2.1,7.1-2.1,11.1s0.7,7.7,2.1,11.1c1.4,3.4,3.6,6.6,6.4,9.4c2.9,2.9,6,5,9.4,6.4c3.4,1.4,7.1,2.1,11.1,2.1
				s7.7-0.7,11.1-2.1c3.4-1.4,6.6-3.6,9.4-6.4c2.9-2.9,5-6,6.4-9.4c1.4-3.4,2.1-7.1,2.1-11.1s-0.7-7.7-2.1-11.1
				C165.2,29.4,163.1,26.3,160.2,23.4z M164.8,54.3c-1.3,3.2-3.3,6.1-6,8.8c-2.7,2.7-5.6,4.7-8.8,6c-3.2,1.3-6.6,2-10.3,2
				c-3.7,0-7.2-0.7-10.3-2c-3.2-1.3-6.1-3.3-8.8-6c-2.7-2.7-4.7-5.6-6-8.8c-1.3-3.2-2-6.6-2-10.3c0-3.7,0.7-7.2,2-10.3
				c1.3-3.2,3.3-6.1,6-8.8c2.7-2.7,5.6-4.7,8.8-6c3.2-1.3,6.6-2,10.3-2c3.7,0,7.2,0.7,10.3,2c3.2,1.3,6.1,3.3,8.8,6
				c2.7,2.7,4.7,5.6,6,8.8c1.3,3.2,2,6.6,2,10.3C166.8,47.7,166.1,51.1,164.8,54.3z"/>
			<path class="st1" d="M183.7,43.9c0-6-1.1-11.5-3.3-16.7c-2.2-5.2-5.4-9.9-9.7-14.2c-4.3-4.3-9.1-7.6-14.2-9.7
				C151.3,1.1,145.7,0,139.7,0c-6,0-11.6,1.1-16.8,3.3c-5.2,2.2-9.9,5.4-14.2,9.7c-4.3,4.3-7.5,9.1-9.7,14.2
				c-2.2,5.2-3.3,10.8-3.3,16.7c0,6,1.1,11.6,3.3,16.8c2.2,5.2,5.4,9.9,9.7,14.2l0,0c4.3,4.3,9,7.5,14.2,9.6
				c5.2,2.2,10.8,3.2,16.8,3.2c6,0,11.6-1.1,16.8-3.2c5.2-2.1,9.9-5.4,14.2-9.6l0,0c4.3-4.3,7.6-9.1,9.7-14.2
				C182.6,55.5,183.7,49.9,183.7,43.9z M169.3,73.5c-4.1,4.1-8.7,7.2-13.6,9.2c-4.9,2-10.3,3.1-16,3.1c-5.7,0-11.1-1-16-3.1
				c-4.9-2-9.5-5.1-13.6-9.2c-4.1-4.1-7.2-8.7-9.3-13.6c-2.1-4.9-3.1-10.3-3.1-16c0-5.7,1-11,3.1-15.9c2.1-4.9,5.2-9.5,9.3-13.6
				c4.1-4.1,8.7-7.2,13.6-9.3c4.9-2.1,10.3-3.1,16-3.1c5.7,0,11.1,1,16,3.1c4.9,2.1,9.5,5.2,13.6,9.3c4.1,4.1,7.2,8.7,9.3,13.6
				c2.1,4.9,3.1,10.3,3.1,15.9c0,5.7-1,11.1-3.1,16C176.5,64.8,173.4,69.4,169.3,73.5z"/>
		</g>
		<path class="st1" d="M69.1,85.5v1.4c5.6,0,11.3,0,16.9,0V4.7V4.6c0-1.6-1.1-3-2.6-3.5L83.5,1h-1.1h0H73h0h-4h0
			c-2.2,0-4.1,1.2-4.8,2.9l0,0L45,54.5h0c-0.3,0.7-1.1,1.2-2,1.2c-0.9,0-1.7-0.5-2-1.2L21.9,4l0,0C21.1,2.2,19.3,1,17,1h0h-4h0h0
			H3.7H3.6H2.5l0.1,0.1C1.1,1.6,0,3,0,4.6v0.1v82.2c5.6,0,11.3,0,16.9,0v-1.4V38.6V35l13.8,32.6h0C32.6,71.9,37.4,75,43,75
			c5.7,0,10.5-3.1,12.3-7.5h0L69.1,35v3.5V85.5z M67.3,34.2L53.5,66.8C51.9,70.5,47.7,73,43,73c-4.7,0-8.8-2.5-10.4-6.1
			c0,0,0-0.1-0.1-0.1L18.8,34.2c-0.4-0.9-1.3-1.4-2.2-1.2c-0.9,0.2-1.6,1-1.6,2v49.8H2V4.6c0-0.7,0.5-1.3,1.2-1.5
			c0.1,0,0.1,0,0.2-0.1H17c1.3,0,2.5,0.7,2.9,1.7l19.2,50.6c0.6,1.5,2.1,2.4,3.9,2.4c1.7,0,3.2-0.9,3.9-2.5L66.1,4.7
			C66.5,3.7,67.7,3,69,3h13.7c0.1,0,0.1,0,0.2,0.1C83.5,3.3,84,3.9,84,4.7v80.1H71.1V35c0-1-0.7-1.8-1.6-2
			C68.6,32.9,67.6,33.4,67.3,34.2z"/>
	</g>
	<path class="st0" d="M324.4,46L324.4,46l-0.1,0.1l-22.3,12.5l0,0c-0.3,0.2-0.7,0.3-1.1,0.3c-1.2,0-2.2-1.1-2.2-2.4l0-0.2h0l0-25
		l0-0.1c0-1.3,1-2.4,2.2-2.4c0.4,0,0.8,0.1,1.1,0.3l0,0l22.5,12.7v0c0.6,0.4,1,1.2,1,2C325.5,44.8,325,45.6,324.4,46L324.4,46z"/>
	<path class="st0" d="M353.4,81.8L353.4,81.8c0,2.8-2.3,5.1-5.1,5.1h0h-11.8V1h11.8v0c2.8,0,5,2.3,5,5.1v0l0,0
		C353.4,31.3,353.4,56.5,353.4,81.8L353.4,81.8z"/>
	<path class="st1" d="M270.6,81.8L270.6,81.8V6.2l0,0l0-0.1c0-2.8,2.3-5.1,5.1-5.1h0v0H327c0,5.6,0,11.2,0,16.9h-37.4h0l0,0
		c-1.2,0-2.1,1-2.1,2.1l0,0l0,0v47.9v0c0,1.2,1,2.1,2.1,2.1h0H327c0,5.6,0,11.2,0,16.8h-51.2l0,0h0
		C272.9,86.8,270.7,84.6,270.6,81.8L270.6,81.8L270.6,81.8z"/>
</g>
<g id="favicon">
</g>
</svg>
